<?xml version="1.0" standalone="no"?>
<!DOCTYPE svg PUBLIC "-//W3C//DTD SVG 20010904//EN"
 "http://www.w3.org/TR/2001/REC-SVG-20010904/DTD/svg10.dtd">
<svg version="1.0" xmlns="http://www.w3.org/2000/svg"
 width="1024.000000pt" height="1024.000000pt" viewBox="0 0 1024.000000 1024.000000"
 preserveAspectRatio="xMidYMid meet">

<g transform="translate(0.000000,1024.000000) scale(0.100000,-0.100000)"
fill="#000000" stroke="none">
<path d="M4020 8473 c-496 -53 -930 -355 -1146 -798 -83 -171 -124 -316 -143
-505 -13 -125 -7 -198 61 -832 34 -318 59 -580 56 -583 -3 -3 -31 -12 -62 -20
-275 -72 -482 -293 -531 -567 -65 -365 162 -723 517 -817 70 -18 198 -36 198
-28 0 2 -9 42 -21 88 -24 95 -24 98 -46 228 -11 72 -17 195 -20 486 l-4 390
82 108 c45 60 117 165 160 235 l79 126 0 -46 0 -47 80 -43 80 -43 0 -291 c0
-318 3 -341 62 -458 35 -70 125 -164 188 -197 110 -57 122 -59 550 -59 428 0
440 2 550 59 63 33 153 127 188 197 60 119 62 136 62 501 l0 333 160 0 160 0
0 -333 c0 -365 2 -382 62 -501 35 -70 125 -164 188 -197 110 -57 122 -59 550
-59 428 0 440 2 550 59 63 33 153 127 188 197 59 117 62 140 62 458 l0 291 75
40 76 40 62 -67 c68 -72 170 -160 230 -197 l39 -24 -5 -431 c-2 -237 -7 -442
-10 -456 -3 -14 -8 -47 -12 -75 -3 -27 -8 -59 -10 -70 -3 -11 -7 -31 -9 -45
-2 -14 -13 -63 -25 -109 -12 -46 -21 -86 -21 -88 0 -8 130 10 200 28 198 53
357 185 450 374 49 100 69 176 74 285 9 205 -63 390 -209 535 -100 101 -238
176 -367 199 -34 6 -37 9 -32 34 30 162 117 826 121 922 20 484 -257 954 -694
1173 l-51 26 28 77 c49 131 90 341 90 461 l0 43 -1412 -2 c-777 0 -1429 -3
-1448 -5z m2475 -1219 c54 -312 162 -688 254 -888 23 -49 41 -90 41 -91 0 -2
-47 12 -104 31 -184 60 -330 85 -531 91 -229 7 -314 -6 -565 -90 l-185 -62
-285 0 -285 0 -185 62 c-251 84 -336 97 -565 90 -138 -4 -209 -12 -304 -32
-138 -29 -314 -83 -408 -125 l-63 -29 16 37 c103 236 178 556 191 815 3 70 8
127 10 127 3 0 61 -21 131 -46 227 -82 481 -139 747 -168 147 -15 604 -18 790
-5 202 15 426 39 505 55 241 49 509 185 685 347 57 53 71 62 77 49 3 -10 18
-85 33 -168z"/>
<path d="M4735 4741 c-34 -21 -58 -76 -52 -117 14 -86 102 -217 185 -273 119
-82 323 -91 469 -20 93 45 203 190 219 290 17 104 -112 181 -188 112 -21 -19
-53 -73 -43 -73 6 0 -43 -79 -60 -96 -64 -64 -224 -62 -290 3 -15 16 -41 57
-58 92 -45 94 -112 124 -182 82z"/>
<path d="M5785 3949 c-11 -6 -33 -24 -50 -40 -49 -46 -145 -98 -230 -126 -114
-37 -314 -39 -496 -4 -78 15 -139 21 -161 17 -50 -9 -80 -45 -85 -103 -7 -90
31 -123 178 -153 292 -60 557 -42 753 50 83 39 221 142 248 184 46 74 -5 174
-93 182 -24 3 -53 -1 -64 -7z"/>
<path d="M4318 2631 l-3 -236 -495 -152 c-630 -193 -665 -205 -783 -264 -147
-73 -239 -141 -367 -269 -174 -173 -277 -338 -349 -555 -68 -206 -73 -256 -78
-732 l-5 -423 2882 0 2882 0 -5 423 c-5 476 -10 526 -78 732 -72 217 -175 382
-349 555 -128 128 -220 196 -367 269 -118 59 -153 71 -783 264 l-495 152 -3
238 c-2 225 -3 237 -20 228 -49 -26 -304 -92 -447 -116 -168 -27 -523 -27
-666 0 -13 3 -39 7 -59 10 -20 3 -46 8 -58 10 -12 3 -32 7 -43 10 -70 15 -186
48 -243 69 l-66 23 -2 -236z m9 -813 c-3 -7 -5 -2 -5 12 0 14 2 19 5 13 2 -7
2 -19 0 -25z m1590 0 c-3 -7 -5 -2 -5 12 0 14 2 19 5 13 2 -7 2 -19 0 -25z
m-1580 -60 c-3 -7 -5 -2 -5 12 0 14 2 19 5 13 2 -7 2 -19 0 -25z m1570 0 c-3
-8 -6 -5 -6 6 -1 11 2 17 5 13 3 -3 4 -12 1 -19z m-1352 -398 c27 -27 47 -50
44 -50 -3 0 -27 23 -54 50 -27 28 -47 50 -44 50 3 0 27 -22 54 -50z m1185 47
c0 -1 -24 -25 -52 -52 l-53 -50 50 53 c46 48 55 57 55 49z m-1099 -124 c13
-16 12 -17 -3 -4 -17 13 -22 21 -14 21 2 0 10 -8 17 -17z m979 13 c0 -2 -8
-10 -17 -17 -16 -13 -17 -12 -4 4 13 16 21 21 21 13z m-643 -162 c-3 -3 -12
-4 -19 -1 -8 3 -5 6 6 6 11 1 17 -2 13 -5z m306 -1 c-7 -2 -19 -2 -25 0 -7 3
-2 5 12 5 14 0 19 -2 13 -5z m-225 -10 c-10 -2 -26 -2 -35 0 -10 3 -2 5 17 5
19 0 27 -2 18 -5z m165 0 c-7 -2 -21 -2 -30 0 -10 3 -4 5 12 5 17 0 24 -2 18
-5z"/>
</g>
</svg>
